<?xml version="1.0" encoding="UTF-8" standalone="no"?><!-- Generator: Gravit.io --><svg xmlns="http://www.w3.org/2000/svg" xmlns:xlink="http://www.w3.org/1999/xlink" style="isolation:isolate" viewBox="0 0 620 455" width="620pt" height="455pt"><defs><clipPath id="_clipPath_QC0GoO8646VUahjMQZHj2cfCDTo9Qrzp"><rect width="620" height="455"/></clipPath></defs><g clip-path="url(#_clipPath_QC0GoO8646VUahjMQZHj2cfCDTo9Qrzp)"><path d=" M 104.252 349.597 L 101.952 347.706 L 35.961 427.965 L 38.261 429.856 L 104.252 349.597 Z  M 242.745 193.431 L 240.93 191.071 L 173.757 242.74 L 175.573 245.1 L 242.745 193.431 Z  M 221.752 331.975 L 224.395 330.604 L 176.531 238.379 L 173.888 239.751 L 221.752 331.975 Z  M 112.275 347.445 L 113.036 350.323 L 213.483 323.738 L 212.721 320.86 L 112.275 347.445 Z  M 107.327 347.445 L 108.089 350.323 L 208.535 323.738 L 207.773 320.86 L 107.327 347.445 Z  M 48.97 257.98 L 46.483 259.617 L 103.612 346.407 L 106.099 344.77 L 48.97 257.98 Z  M 303.525 258.038 L 301.926 255.526 L 214.272 311.32 L 215.871 313.832 L 303.525 258.038 Z  M 260.042 414.563 L 262.697 413.217 L 215.699 320.548 L 213.043 321.895 L 260.042 414.563 Z  M 489.213 326.737 L 491.061 324.402 L 409.57 259.939 L 407.723 262.274 L 489.213 326.737 Z  M 601.653 231.182 L 602.193 228.254 L 502.73 209.884 L 502.19 212.812 L 601.653 231.182 Z  M 546.098 19.539 L 544.198 17.269 L 469.684 82.53 L 471.584 84.8 L 546.098 19.539 Z  M 463.957 89.558 L 465.633 87.211 L 383.27 32.34 L 381.593 34.688 L 463.957 89.558 Z  M 417.774 271.646 L 419.684 273.807 L 489.528 207.427 L 487.617 205.266 L 417.774 271.646 Z  M 291.028 99.678 L 289.994 102.371 L 411.313 144.013 L 412.347 141.32 L 291.028 99.678 Z  M 244.482 190.018 L 247.066 191.301 L 286.782 103.51 L 284.198 102.228 L 244.482 190.018 Z  M 309.359 261.041 L 309 263.903 L 404.976 272.459 L 405.335 269.596 L 309.359 261.041 Z  M 434.741 145.293 L 432.42 147.004 L 492.352 222.454 L 494.674 220.742 L 434.741 145.293 Z  M 474.899 75.739 L 472.356 74.376 L 429.929 160.889 L 432.472 162.251 L 474.899 75.739 Z " fill-rule="evenodd" fill="rgb(7,190,184)"/><path d=" M 140.308 244.464 C 140.308 226.032 155.273 211.066 173.706 211.066 C 192.139 211.066 207.104 226.032 207.104 244.464 C 207.104 262.897 192.139 277.863 173.706 277.863 C 155.273 277.863 140.308 262.897 140.308 244.464 Z  M 168.758 321.775 C 168.758 299.587 188.435 281.573 212.671 281.573 C 236.906 281.573 256.583 299.587 256.583 321.775 C 256.583 343.963 236.906 361.976 212.671 361.976 C 188.435 361.976 168.758 343.963 168.758 321.775 Z  M 68.564 344.04 C 68.564 323.901 84.638 307.55 104.436 307.55 C 124.234 307.55 140.308 323.901 140.308 344.04 C 140.308 364.18 124.234 380.531 104.436 380.531 C 84.638 380.531 68.564 364.18 68.564 344.04 Z  M 236.791 416.403 C 236.791 398.653 251.757 384.242 270.19 384.242 C 288.622 384.242 303.588 398.653 303.588 416.403 C 303.588 434.153 288.622 448.564 270.19 448.564 C 251.757 448.564 236.791 434.153 236.791 416.403 Z  M 270.19 256.216 C 270.19 239.489 283.769 225.91 300.495 225.91 C 317.221 225.91 330.801 239.489 330.801 256.216 C 330.801 272.942 317.221 286.521 300.495 286.521 C 283.769 286.521 270.19 272.942 270.19 256.216 Z  M 461.919 322.393 C 461.919 307.374 474.113 295.18 489.133 295.18 C 504.152 295.18 516.346 307.374 516.346 322.393 C 516.346 337.413 504.152 349.607 489.133 349.607 C 474.113 349.607 461.919 337.413 461.919 322.393 Z  M 213.289 203.645 C 213.289 185.894 227.7 171.483 245.45 171.483 C 263.2 171.483 277.611 185.894 277.611 203.645 C 277.611 221.395 263.2 235.806 245.45 235.806 C 227.7 235.806 213.289 221.395 213.289 203.645 Z  M 262.768 94.791 C 262.768 79.772 274.962 67.578 289.981 67.578 C 305 67.578 317.194 79.772 317.194 94.791 C 317.194 109.811 305 122.005 289.981 122.005 C 274.962 122.005 262.768 109.811 262.768 94.791 Z  M 364.199 44.076 C 364.199 31.787 374.176 21.81 386.464 21.81 C 398.753 21.81 408.73 31.787 408.73 44.076 C 408.73 56.364 398.753 66.341 386.464 66.341 C 374.176 66.341 364.199 56.364 364.199 44.076 Z  M 515.109 25.521 C 515.109 11.867 526.194 0.782 539.848 0.782 C 553.502 0.782 564.588 11.867 564.588 25.521 C 564.588 31.198 562.929 36.089 559.452 40.607 C 554.602 46.909 547.826 50.261 539.848 50.261 C 526.194 50.261 515.109 39.175 515.109 25.521 Z  M 575.72 229.002 C 575.72 215.69 585.974 204.882 598.604 204.882 C 611.234 204.882 621.488 215.69 621.488 229.002 C 621.488 242.315 611.234 253.123 598.604 253.123 C 585.974 253.123 575.72 242.315 575.72 229.002 Z  M 452.024 214.159 C 452.024 196.067 466.712 181.379 484.803 181.379 C 502.895 181.379 517.583 196.067 517.583 214.159 C 517.583 232.25 502.895 246.938 484.803 246.938 C 466.712 246.938 452.024 232.25 452.024 214.159 Z  M 5.479 423.825 C 5.479 408.123 18.227 395.374 33.929 395.374 C 49.631 395.374 62.379 408.123 62.379 423.825 C 62.379 439.527 49.631 452.275 33.929 452.275 C 18.227 452.275 5.479 439.527 5.479 423.825 Z  M 16.611 262.4 C 16.611 247.04 29.082 234.569 44.443 234.569 C 59.804 234.569 72.275 247.04 72.275 262.4 C 72.275 277.761 59.804 290.232 44.443 290.232 C 29.082 290.232 16.611 277.761 16.611 262.4 Z  M 390.175 269.204 C 390.175 251.454 404.586 237.043 422.336 237.043 C 440.087 237.043 454.498 251.454 454.498 269.204 C 454.498 286.954 440.087 301.365 422.336 301.365 C 404.586 301.365 390.175 286.954 390.175 269.204 Z  M 398.834 151.073 C 398.834 133.665 412.968 119.531 430.377 119.531 C 447.786 119.531 461.919 133.665 461.919 151.073 C 461.919 168.482 447.786 182.616 430.377 182.616 C 412.968 182.616 398.834 168.482 398.834 151.073 Z  M 434.706 79.948 C 434.706 62.88 448.563 49.024 465.63 49.024 C 482.698 49.024 496.555 62.88 496.555 79.948 C 496.555 97.015 482.698 110.872 465.63 110.872 C 448.563 110.872 434.706 97.015 434.706 79.948 Z " fill-rule="evenodd" fill="rgb(7,190,184)"/></g></svg>